<mxfile host="Electron" modified="2023-06-27T16:25:39.948Z" agent="Mozilla/5.0 (X11; Linux x86_64) AppleWebKit/537.36 (KHTML, like Gecko) draw.io/21.3.7 Chrome/112.0.5615.204 Electron/24.5.0 Safari/537.36" etag="rnQvwOcRO2KJf5fa2GCt" version="21.3.7" type="device">
  <diagram id="n_9bnykrF1tf9qRnFC2c" name="Page-1">
    <mxGraphModel dx="989" dy="575" grid="1" gridSize="10" guides="1" tooltips="1" connect="1" arrows="1" fold="1" page="1" pageScale="1" pageWidth="850" pageHeight="1100" math="0" shadow="0">
      <root>
        <mxCell id="0" />
        <mxCell id="1" parent="0" />
        <mxCell id="DPKbveiXrUpmOPioYjTU-32" style="edgeStyle=orthogonalEdgeStyle;rounded=0;orthogonalLoop=1;jettySize=auto;html=1;entryX=0;entryY=0.5;entryDx=0;entryDy=0;" parent="1" source="DPKbveiXrUpmOPioYjTU-1" target="DPKbveiXrUpmOPioYjTU-31" edge="1">
          <mxGeometry x="-0.2667" y="-30" relative="1" as="geometry">
            <Array as="points">
              <mxPoint x="290" y="200" />
              <mxPoint x="290" y="80" />
            </Array>
            <mxPoint as="offset" />
          </mxGeometry>
        </mxCell>
        <mxCell id="DPKbveiXrUpmOPioYjTU-37" style="edgeStyle=orthogonalEdgeStyle;rounded=0;orthogonalLoop=1;jettySize=auto;html=1;entryX=0;entryY=0.5;entryDx=0;entryDy=0;startArrow=none;startFill=0;" parent="1" source="DPKbveiXrUpmOPioYjTU-1" target="DPKbveiXrUpmOPioYjTU-13" edge="1">
          <mxGeometry relative="1" as="geometry">
            <Array as="points">
              <mxPoint x="290" y="200" />
              <mxPoint x="290" y="240" />
            </Array>
          </mxGeometry>
        </mxCell>
        <mxCell id="DPKbveiXrUpmOPioYjTU-38" style="edgeStyle=orthogonalEdgeStyle;rounded=0;orthogonalLoop=1;jettySize=auto;html=1;entryX=0;entryY=0.5;entryDx=0;entryDy=0;startArrow=none;startFill=0;" parent="1" source="DPKbveiXrUpmOPioYjTU-1" target="DPKbveiXrUpmOPioYjTU-15" edge="1">
          <mxGeometry relative="1" as="geometry">
            <Array as="points">
              <mxPoint x="290" y="200" />
              <mxPoint x="290" y="300" />
            </Array>
          </mxGeometry>
        </mxCell>
        <mxCell id="DPKbveiXrUpmOPioYjTU-39" style="edgeStyle=orthogonalEdgeStyle;rounded=0;orthogonalLoop=1;jettySize=auto;html=1;entryX=0;entryY=0.5;entryDx=0;entryDy=0;startArrow=none;startFill=0;" parent="1" source="DPKbveiXrUpmOPioYjTU-1" target="DPKbveiXrUpmOPioYjTU-16" edge="1">
          <mxGeometry relative="1" as="geometry">
            <Array as="points">
              <mxPoint x="290" y="200" />
              <mxPoint x="290" y="355" />
            </Array>
          </mxGeometry>
        </mxCell>
        <mxCell id="DPKbveiXrUpmOPioYjTU-40" style="edgeStyle=orthogonalEdgeStyle;rounded=0;orthogonalLoop=1;jettySize=auto;html=1;entryX=0;entryY=0.5;entryDx=0;entryDy=0;startArrow=none;startFill=0;" parent="1" source="DPKbveiXrUpmOPioYjTU-1" target="DPKbveiXrUpmOPioYjTU-18" edge="1">
          <mxGeometry relative="1" as="geometry">
            <Array as="points">
              <mxPoint x="290" y="200" />
              <mxPoint x="290" y="450" />
            </Array>
          </mxGeometry>
        </mxCell>
        <mxCell id="DPKbveiXrUpmOPioYjTU-41" style="edgeStyle=orthogonalEdgeStyle;rounded=0;orthogonalLoop=1;jettySize=auto;html=1;entryX=0;entryY=0.5;entryDx=0;entryDy=0;startArrow=none;startFill=0;" parent="1" source="DPKbveiXrUpmOPioYjTU-1" target="DPKbveiXrUpmOPioYjTU-24" edge="1">
          <mxGeometry relative="1" as="geometry">
            <Array as="points">
              <mxPoint x="290" y="200" />
              <mxPoint x="290" y="490" />
            </Array>
          </mxGeometry>
        </mxCell>
        <mxCell id="DPKbveiXrUpmOPioYjTU-42" style="edgeStyle=orthogonalEdgeStyle;rounded=0;orthogonalLoop=1;jettySize=auto;html=1;entryX=0;entryY=0.5;entryDx=0;entryDy=0;startArrow=none;startFill=0;" parent="1" source="DPKbveiXrUpmOPioYjTU-1" target="DPKbveiXrUpmOPioYjTU-21" edge="1">
          <mxGeometry relative="1" as="geometry">
            <Array as="points">
              <mxPoint x="290" y="200" />
              <mxPoint x="290" y="540" />
            </Array>
          </mxGeometry>
        </mxCell>
        <mxCell id="IRTcUtvgeDP49C102t7Z-4" style="edgeStyle=orthogonalEdgeStyle;rounded=0;orthogonalLoop=1;jettySize=auto;html=1;entryX=0;entryY=0.5;entryDx=0;entryDy=0;" edge="1" parent="1" source="DPKbveiXrUpmOPioYjTU-1" target="IRTcUtvgeDP49C102t7Z-1">
          <mxGeometry relative="1" as="geometry">
            <Array as="points">
              <mxPoint x="290" y="200" />
              <mxPoint x="290" y="400" />
            </Array>
          </mxGeometry>
        </mxCell>
        <mxCell id="DPKbveiXrUpmOPioYjTU-1" value="Anonymous" style="shape=umlActor;verticalLabelPosition=bottom;verticalAlign=top;html=1;" parent="1" vertex="1">
          <mxGeometry x="100" y="160" width="40" height="80" as="geometry" />
        </mxCell>
        <mxCell id="DPKbveiXrUpmOPioYjTU-44" style="edgeStyle=orthogonalEdgeStyle;rounded=0;orthogonalLoop=1;jettySize=auto;html=1;entryX=0;entryY=0.5;entryDx=0;entryDy=0;startArrow=none;startFill=0;" parent="1" source="DPKbveiXrUpmOPioYjTU-5" target="DPKbveiXrUpmOPioYjTU-35" edge="1">
          <mxGeometry relative="1" as="geometry" />
        </mxCell>
        <mxCell id="DPKbveiXrUpmOPioYjTU-45" style="edgeStyle=orthogonalEdgeStyle;rounded=0;orthogonalLoop=1;jettySize=auto;html=1;entryX=0;entryY=0.5;entryDx=0;entryDy=0;startArrow=none;startFill=0;" parent="1" source="DPKbveiXrUpmOPioYjTU-5" target="DPKbveiXrUpmOPioYjTU-36" edge="1">
          <mxGeometry relative="1" as="geometry">
            <Array as="points">
              <mxPoint x="250" y="355" />
              <mxPoint x="250" y="185" />
            </Array>
          </mxGeometry>
        </mxCell>
        <mxCell id="DPKbveiXrUpmOPioYjTU-46" style="edgeStyle=orthogonalEdgeStyle;rounded=0;orthogonalLoop=1;jettySize=auto;html=1;entryX=0;entryY=0.5;entryDx=0;entryDy=0;startArrow=none;startFill=0;" parent="1" source="DPKbveiXrUpmOPioYjTU-5" target="DPKbveiXrUpmOPioYjTU-13" edge="1">
          <mxGeometry relative="1" as="geometry" />
        </mxCell>
        <mxCell id="DPKbveiXrUpmOPioYjTU-47" style="edgeStyle=orthogonalEdgeStyle;rounded=0;orthogonalLoop=1;jettySize=auto;html=1;entryX=0;entryY=0.5;entryDx=0;entryDy=0;startArrow=none;startFill=0;" parent="1" source="DPKbveiXrUpmOPioYjTU-5" target="DPKbveiXrUpmOPioYjTU-15" edge="1">
          <mxGeometry relative="1" as="geometry" />
        </mxCell>
        <mxCell id="DPKbveiXrUpmOPioYjTU-48" style="edgeStyle=orthogonalEdgeStyle;rounded=0;orthogonalLoop=1;jettySize=auto;html=1;entryX=0;entryY=0.5;entryDx=0;entryDy=0;startArrow=none;startFill=0;" parent="1" source="DPKbveiXrUpmOPioYjTU-5" target="DPKbveiXrUpmOPioYjTU-16" edge="1">
          <mxGeometry relative="1" as="geometry" />
        </mxCell>
        <mxCell id="DPKbveiXrUpmOPioYjTU-49" style="edgeStyle=orthogonalEdgeStyle;rounded=0;orthogonalLoop=1;jettySize=auto;html=1;entryX=0;entryY=0.5;entryDx=0;entryDy=0;startArrow=none;startFill=0;" parent="1" source="DPKbveiXrUpmOPioYjTU-5" target="DPKbveiXrUpmOPioYjTU-18" edge="1">
          <mxGeometry relative="1" as="geometry" />
        </mxCell>
        <mxCell id="DPKbveiXrUpmOPioYjTU-50" style="edgeStyle=orthogonalEdgeStyle;rounded=0;orthogonalLoop=1;jettySize=auto;html=1;entryX=0;entryY=0.5;entryDx=0;entryDy=0;startArrow=none;startFill=0;" parent="1" source="DPKbveiXrUpmOPioYjTU-5" target="DPKbveiXrUpmOPioYjTU-24" edge="1">
          <mxGeometry relative="1" as="geometry" />
        </mxCell>
        <mxCell id="DPKbveiXrUpmOPioYjTU-51" style="edgeStyle=orthogonalEdgeStyle;rounded=0;orthogonalLoop=1;jettySize=auto;html=1;entryX=0;entryY=0.5;entryDx=0;entryDy=0;startArrow=none;startFill=0;" parent="1" source="DPKbveiXrUpmOPioYjTU-5" target="DPKbveiXrUpmOPioYjTU-21" edge="1">
          <mxGeometry relative="1" as="geometry" />
        </mxCell>
        <mxCell id="DPKbveiXrUpmOPioYjTU-52" style="edgeStyle=orthogonalEdgeStyle;rounded=0;orthogonalLoop=1;jettySize=auto;html=1;entryX=0;entryY=0.5;entryDx=0;entryDy=0;startArrow=none;startFill=0;" parent="1" source="DPKbveiXrUpmOPioYjTU-5" target="DPKbveiXrUpmOPioYjTU-23" edge="1">
          <mxGeometry relative="1" as="geometry" />
        </mxCell>
        <mxCell id="IRTcUtvgeDP49C102t7Z-2" style="edgeStyle=orthogonalEdgeStyle;rounded=0;orthogonalLoop=1;jettySize=auto;html=1;entryX=0;entryY=0.5;entryDx=0;entryDy=0;" edge="1" parent="1" source="DPKbveiXrUpmOPioYjTU-5" target="IRTcUtvgeDP49C102t7Z-1">
          <mxGeometry relative="1" as="geometry" />
        </mxCell>
        <mxCell id="DPKbveiXrUpmOPioYjTU-5" value="USER" style="shape=umlActor;verticalLabelPosition=bottom;verticalAlign=top;html=1;" parent="1" vertex="1">
          <mxGeometry x="110" y="315" width="40" height="80" as="geometry" />
        </mxCell>
        <mxCell id="DPKbveiXrUpmOPioYjTU-27" style="edgeStyle=orthogonalEdgeStyle;rounded=0;orthogonalLoop=1;jettySize=auto;html=1;entryX=0;entryY=0.5;entryDx=0;entryDy=0;" parent="1" source="DPKbveiXrUpmOPioYjTU-6" target="DPKbveiXrUpmOPioYjTU-26" edge="1">
          <mxGeometry relative="1" as="geometry">
            <Array as="points">
              <mxPoint x="200" y="490" />
              <mxPoint x="200" y="660" />
            </Array>
          </mxGeometry>
        </mxCell>
        <mxCell id="DPKbveiXrUpmOPioYjTU-28" style="edgeStyle=orthogonalEdgeStyle;rounded=0;orthogonalLoop=1;jettySize=auto;html=1;entryX=0;entryY=0.5;entryDx=0;entryDy=0;" parent="1" source="DPKbveiXrUpmOPioYjTU-6" target="DPKbveiXrUpmOPioYjTU-23" edge="1">
          <mxGeometry relative="1" as="geometry">
            <Array as="points">
              <mxPoint x="200" y="490" />
              <mxPoint x="200" y="590" />
            </Array>
          </mxGeometry>
        </mxCell>
        <mxCell id="DPKbveiXrUpmOPioYjTU-29" style="edgeStyle=orthogonalEdgeStyle;rounded=0;orthogonalLoop=1;jettySize=auto;html=1;entryX=0;entryY=0.5;entryDx=0;entryDy=0;" parent="1" source="DPKbveiXrUpmOPioYjTU-6" target="DPKbveiXrUpmOPioYjTU-21" edge="1">
          <mxGeometry relative="1" as="geometry">
            <Array as="points">
              <mxPoint x="200" y="490" />
              <mxPoint x="200" y="540" />
            </Array>
          </mxGeometry>
        </mxCell>
        <mxCell id="DPKbveiXrUpmOPioYjTU-30" style="edgeStyle=orthogonalEdgeStyle;rounded=0;orthogonalLoop=1;jettySize=auto;html=1;entryX=0;entryY=0.5;entryDx=0;entryDy=0;" parent="1" source="DPKbveiXrUpmOPioYjTU-6" target="DPKbveiXrUpmOPioYjTU-24" edge="1">
          <mxGeometry relative="1" as="geometry" />
        </mxCell>
        <mxCell id="DPKbveiXrUpmOPioYjTU-53" style="edgeStyle=orthogonalEdgeStyle;rounded=0;orthogonalLoop=1;jettySize=auto;html=1;entryX=0;entryY=0.5;entryDx=0;entryDy=0;startArrow=none;startFill=0;" parent="1" source="DPKbveiXrUpmOPioYjTU-6" target="DPKbveiXrUpmOPioYjTU-18" edge="1">
          <mxGeometry relative="1" as="geometry">
            <Array as="points">
              <mxPoint x="200" y="490" />
              <mxPoint x="200" y="450" />
            </Array>
          </mxGeometry>
        </mxCell>
        <mxCell id="DPKbveiXrUpmOPioYjTU-54" style="edgeStyle=orthogonalEdgeStyle;rounded=0;orthogonalLoop=1;jettySize=auto;html=1;entryX=0;entryY=0.5;entryDx=0;entryDy=0;startArrow=none;startFill=0;" parent="1" source="DPKbveiXrUpmOPioYjTU-6" target="DPKbveiXrUpmOPioYjTU-16" edge="1">
          <mxGeometry relative="1" as="geometry">
            <Array as="points">
              <mxPoint x="200" y="490" />
              <mxPoint x="200" y="355" />
            </Array>
          </mxGeometry>
        </mxCell>
        <mxCell id="DPKbveiXrUpmOPioYjTU-55" style="edgeStyle=orthogonalEdgeStyle;rounded=0;orthogonalLoop=1;jettySize=auto;html=1;entryX=0;entryY=0.5;entryDx=0;entryDy=0;startArrow=none;startFill=0;" parent="1" source="DPKbveiXrUpmOPioYjTU-6" target="DPKbveiXrUpmOPioYjTU-15" edge="1">
          <mxGeometry x="0.0739" y="39" relative="1" as="geometry">
            <Array as="points">
              <mxPoint x="200" y="490" />
              <mxPoint x="200" y="300" />
            </Array>
            <mxPoint as="offset" />
          </mxGeometry>
        </mxCell>
        <mxCell id="DPKbveiXrUpmOPioYjTU-56" style="edgeStyle=orthogonalEdgeStyle;rounded=0;orthogonalLoop=1;jettySize=auto;html=1;entryX=0;entryY=0.5;entryDx=0;entryDy=0;startArrow=none;startFill=0;" parent="1" source="DPKbveiXrUpmOPioYjTU-6" target="DPKbveiXrUpmOPioYjTU-13" edge="1">
          <mxGeometry relative="1" as="geometry">
            <Array as="points">
              <mxPoint x="200" y="490" />
              <mxPoint x="200" y="240" />
            </Array>
          </mxGeometry>
        </mxCell>
        <mxCell id="DPKbveiXrUpmOPioYjTU-57" style="edgeStyle=orthogonalEdgeStyle;rounded=0;orthogonalLoop=1;jettySize=auto;html=1;entryX=0;entryY=0.5;entryDx=0;entryDy=0;startArrow=none;startFill=0;" parent="1" source="DPKbveiXrUpmOPioYjTU-6" target="DPKbveiXrUpmOPioYjTU-36" edge="1">
          <mxGeometry relative="1" as="geometry">
            <Array as="points">
              <mxPoint x="200" y="490" />
              <mxPoint x="200" y="185" />
            </Array>
          </mxGeometry>
        </mxCell>
        <mxCell id="DPKbveiXrUpmOPioYjTU-58" style="edgeStyle=orthogonalEdgeStyle;rounded=0;orthogonalLoop=1;jettySize=auto;html=1;entryX=0;entryY=0.5;entryDx=0;entryDy=0;startArrow=none;startFill=0;" parent="1" source="DPKbveiXrUpmOPioYjTU-6" target="DPKbveiXrUpmOPioYjTU-35" edge="1">
          <mxGeometry relative="1" as="geometry">
            <Array as="points">
              <mxPoint x="200" y="490" />
              <mxPoint x="200" y="130" />
            </Array>
          </mxGeometry>
        </mxCell>
        <mxCell id="IRTcUtvgeDP49C102t7Z-3" style="edgeStyle=orthogonalEdgeStyle;rounded=0;orthogonalLoop=1;jettySize=auto;html=1;entryX=0;entryY=0.5;entryDx=0;entryDy=0;" edge="1" parent="1" source="DPKbveiXrUpmOPioYjTU-6" target="IRTcUtvgeDP49C102t7Z-1">
          <mxGeometry relative="1" as="geometry">
            <Array as="points">
              <mxPoint x="200" y="490" />
              <mxPoint x="200" y="400" />
            </Array>
          </mxGeometry>
        </mxCell>
        <mxCell id="DPKbveiXrUpmOPioYjTU-6" value="ADMIN" style="shape=umlActor;verticalLabelPosition=bottom;verticalAlign=top;html=1;" parent="1" vertex="1">
          <mxGeometry x="90" y="450" width="40" height="80" as="geometry" />
        </mxCell>
        <mxCell id="DPKbveiXrUpmOPioYjTU-9" value="Identity Provider" style="shape=umlActor;verticalLabelPosition=bottom;verticalAlign=top;html=1;" parent="1" vertex="1">
          <mxGeometry x="580" y="60" width="40" height="80" as="geometry" />
        </mxCell>
        <mxCell id="DPKbveiXrUpmOPioYjTU-12" value="MovieScape" style="shape=umlFrame;whiteSpace=wrap;html=1;width=80;height=30;" parent="1" vertex="1">
          <mxGeometry x="300" y="30" width="250" height="680" as="geometry" />
        </mxCell>
        <mxCell id="DPKbveiXrUpmOPioYjTU-13" value="Αρχική Σελίδα" style="ellipse;whiteSpace=wrap;html=1;" parent="1" vertex="1">
          <mxGeometry x="347.5" y="220" width="95" height="40" as="geometry" />
        </mxCell>
        <mxCell id="DPKbveiXrUpmOPioYjTU-15" value="Εμφάνιση Ταινιών" style="ellipse;whiteSpace=wrap;html=1;" parent="1" vertex="1">
          <mxGeometry x="347.5" y="280" width="95" height="40" as="geometry" />
        </mxCell>
        <mxCell id="DPKbveiXrUpmOPioYjTU-16" value="Εμφάνιση Λεπτομερειών Ταινίας" style="ellipse;whiteSpace=wrap;html=1;" parent="1" vertex="1">
          <mxGeometry x="345" y="330" width="105" height="50" as="geometry" />
        </mxCell>
        <mxCell id="DPKbveiXrUpmOPioYjTU-18" value="Εμφάνιση Καταστημάτων" style="ellipse;whiteSpace=wrap;html=1;" parent="1" vertex="1">
          <mxGeometry x="350" y="430" width="95" height="40" as="geometry" />
        </mxCell>
        <mxCell id="DPKbveiXrUpmOPioYjTU-21" value="Εμφάνιση Εισιτηρίων" style="ellipse;whiteSpace=wrap;html=1;" parent="1" vertex="1">
          <mxGeometry x="350" y="520" width="95" height="40" as="geometry" />
        </mxCell>
        <mxCell id="DPKbveiXrUpmOPioYjTU-23" value="Αγορά Εισιτηρίων" style="ellipse;whiteSpace=wrap;html=1;" parent="1" vertex="1">
          <mxGeometry x="350" y="570" width="95" height="40" as="geometry" />
        </mxCell>
        <mxCell id="DPKbveiXrUpmOPioYjTU-24" value="Εμφάνιση Προβολών" style="ellipse;whiteSpace=wrap;html=1;" parent="1" vertex="1">
          <mxGeometry x="347.5" y="470" width="95" height="40" as="geometry" />
        </mxCell>
        <mxCell id="DPKbveiXrUpmOPioYjTU-26" value="Διαχείριση" style="ellipse;whiteSpace=wrap;html=1;" parent="1" vertex="1">
          <mxGeometry x="350" y="640" width="95" height="40" as="geometry" />
        </mxCell>
        <mxCell id="DPKbveiXrUpmOPioYjTU-33" style="edgeStyle=orthogonalEdgeStyle;rounded=0;orthogonalLoop=1;jettySize=auto;html=1;entryX=0;entryY=0.3333333333333333;entryDx=0;entryDy=0;entryPerimeter=0;startArrow=block;startFill=1;" parent="1" source="DPKbveiXrUpmOPioYjTU-31" target="DPKbveiXrUpmOPioYjTU-9" edge="1">
          <mxGeometry relative="1" as="geometry" />
        </mxCell>
        <mxCell id="DPKbveiXrUpmOPioYjTU-31" value="Είσοδος/Εγγραφή" style="ellipse;whiteSpace=wrap;html=1;" parent="1" vertex="1">
          <mxGeometry x="350" y="60" width="95" height="40" as="geometry" />
        </mxCell>
        <mxCell id="DPKbveiXrUpmOPioYjTU-59" style="edgeStyle=orthogonalEdgeStyle;rounded=0;orthogonalLoop=1;jettySize=auto;html=1;entryX=0;entryY=1;entryDx=0;entryDy=0;entryPerimeter=0;startArrow=block;startFill=1;" parent="1" source="DPKbveiXrUpmOPioYjTU-35" target="DPKbveiXrUpmOPioYjTU-9" edge="1">
          <mxGeometry relative="1" as="geometry">
            <Array as="points">
              <mxPoint x="560" y="140" />
              <mxPoint x="560" y="140" />
            </Array>
          </mxGeometry>
        </mxCell>
        <mxCell id="DPKbveiXrUpmOPioYjTU-35" value="Διαχείριση Λογαριασμού" style="ellipse;whiteSpace=wrap;html=1;" parent="1" vertex="1">
          <mxGeometry x="350" y="110" width="95" height="40" as="geometry" />
        </mxCell>
        <mxCell id="DPKbveiXrUpmOPioYjTU-36" value="Εμφάνιση Προβολών Χρήστη" style="ellipse;whiteSpace=wrap;html=1;" parent="1" vertex="1">
          <mxGeometry x="342.5" y="160" width="105" height="50" as="geometry" />
        </mxCell>
        <mxCell id="IRTcUtvgeDP49C102t7Z-1" value="Fuzzy Αναζήτηση" style="ellipse;whiteSpace=wrap;html=1;" vertex="1" parent="1">
          <mxGeometry x="347.5" y="380" width="95" height="40" as="geometry" />
        </mxCell>
      </root>
    </mxGraphModel>
  </diagram>
</mxfile>
